<svg width="14" height="13" viewBox="0 0 14 13" fill="none" xmlns="http://www.w3.org/2000/svg">
<path fill-rule="evenodd" clip-rule="evenodd" d="M0 0.529412C0 0.237018 0.251831 0 0.5625 0H5.81249C6.75734 0 7.66347 0.353255 8.33156 0.982048C8.99963 1.61085 9.37504 2.46368 9.37504 3.35293V10.5454L12.1647 7.91976C12.3844 7.71301 12.7406 7.71301 12.9602 7.91976C13.1799 8.12655 13.1799 8.46166 12.9602 8.66845L9.21023 12.1978C8.99052 12.4046 8.63442 12.4046 8.41475 12.1978L4.66474 8.66845C4.44508 8.46166 4.44508 8.12655 4.66474 7.91976C4.88441 7.71301 5.24058 7.71301 5.46024 7.91976L8.25 10.5454V3.35293C8.25 2.7445 7.99319 2.16098 7.53607 1.73075C7.07895 1.30052 6.45896 1.05882 5.81249 1.05882H0.5625C0.251831 1.05882 0 0.821795 0 0.529412Z" fill="white"/>
</svg>
