<svg width="48" height="48" viewBox="0 0 48 48" fill="none" xmlns="http://www.w3.org/2000/svg">
<path d="M5 24C5 15.0433 5 10.565 7.78249 7.78249C10.565 5 15.0433 5 24 5C32.9567 5 37.435 5 40.2175 7.78249C43 10.565 43 15.0433 43 24C43 32.9567 43 37.435 40.2175 40.2175C37.435 43 32.9567 43 24 43C15.0433 43 10.565 43 7.78249 40.2175C5 37.435 5 32.9567 5 24Z" stroke="white" stroke-width="2"/>
<path d="M16 27.5C16 27.5 19.2 29.3251 20.8 32C20.8 32 25.6 21.5 32 18" stroke="white" stroke-width="2" stroke-linecap="round" stroke-linejoin="round"/>
</svg>
