<svg width="48" height="48" viewBox="0 0 48 48" fill="none" xmlns="http://www.w3.org/2000/svg">
<path d="M36 41C37.7775 40.6007 39.1276 39.9444 40.2175 38.8654C43 36.1107 43 31.6772 43 22.81C43 13.9429 43 9.50933 40.2175 6.75466C37.435 4 32.9567 4 24 4C15.0433 4 10.565 4 7.78249 6.75466C5 9.50933 5 13.9429 5 22.81C5 31.6772 5 36.1107 7.78249 38.8654C8.87239 39.9444 10.2225 40.6007 12 41" stroke="#1D1F2C" stroke-width="2" stroke-linecap="round"/>
<path d="M5 17L43 17" stroke="#1D1F2C" stroke-width="2" stroke-linejoin="round"/>
<path d="M13.9996 11H14.0176" stroke="#1D1F2C" stroke-width="2.5" stroke-linecap="round" stroke-linejoin="round"/>
<path d="M21.9996 11H22.0176" stroke="#1D1F2C" stroke-width="2.5" stroke-linecap="round" stroke-linejoin="round"/>
<path d="M23.9983 26C21.1488 26 19.3012 27.8171 17.1161 28.4794C16.2277 28.7487 15.7834 28.8834 15.6037 29.0732C15.4239 29.263 15.3712 29.5404 15.2659 30.0951C14.1393 36.0314 16.6019 41.5196 22.475 43.6557C23.106 43.8852 23.4216 44 24.0014 44C24.5812 44 24.8967 43.8852 25.5277 43.6557C31.4005 41.5195 33.8608 36.0314 32.7338 30.0951C32.6284 29.5403 32.5758 29.2629 32.3959 29.073C32.2161 28.8832 31.7719 28.7486 30.8835 28.4795C28.6976 27.8172 26.8479 26 23.9983 26Z" stroke="#1D1F2C" stroke-width="2" stroke-linecap="round" stroke-linejoin="round"/>
</svg>
