<svg width="48" height="48" viewBox="0 0 48 48" fill="none" xmlns="http://www.w3.org/2000/svg">
<path d="M43.9195 21.9414C44.0268 23.6019 44.0268 25.3214 43.9195 26.9818C43.3712 35.4665 36.7072 42.2249 28.3412 42.7811C25.487 42.9708 22.5071 42.9704 19.6588 42.7811C18.6779 42.7159 17.6088 42.4818 16.688 42.1026C15.6635 41.6806 15.1512 41.4696 14.8909 41.5016C14.6305 41.5336 14.2528 41.8122 13.4974 42.3693C12.1654 43.3515 10.4873 44.0569 7.99885 43.9964C6.74052 43.9657 6.11135 43.9504 5.82968 43.4702C5.54802 42.99 5.89882 42.3252 6.60042 40.9956C7.57349 39.1517 8.19002 37.0406 7.25581 35.3492C5.64686 32.9332 4.28019 30.072 4.08048 26.9818C3.97317 25.3214 3.97317 23.6019 4.08048 21.9414C4.62882 13.4568 11.2928 6.69827 19.6588 6.14215C22.0637 5.98229 22.5624 5.95712 25 6.06736" stroke="#1D1F2C" stroke-width="2" stroke-linecap="round" stroke-linejoin="round"/>
<path d="M23.9907 25H24.0086M31.9817 25H31.9996M15.9996 25H16.0176" stroke="#1D1F2C" stroke-width="2.5" stroke-linecap="round" stroke-linejoin="round"/>
<path d="M44 11C44 14.866 40.866 18 37 18C33.134 18 30 14.866 30 11C30 7.13401 33.134 4 37 4C40.866 4 44 7.13401 44 11Z" stroke="#1D1F2C" stroke-width="2"/>
</svg>
