<svg width="20" height="20" viewBox="0 0 20 20" fill="none" xmlns="http://www.w3.org/2000/svg">
<path d="M11.6667 12.3447V7.65542C11.6667 5.03443 11.6667 3.72393 10.8956 3.39779C10.1245 3.07165 9.21698 3.99831 7.40195 5.85164C6.46201 6.81141 5.92573 7.02395 4.58839 7.02395C3.41883 7.02395 2.83405 7.02395 2.41398 7.31055C1.54198 7.9055 1.67379 9.06837 1.67379 10C1.67379 10.9317 1.54198 12.0946 2.41398 12.6895C2.83405 12.9761 3.41883 12.9761 4.58839 12.9761C5.92573 12.9761 6.46201 13.1887 7.40195 14.1484C9.21698 16.0018 10.1245 16.9284 10.8956 16.6023C11.6667 16.2762 11.6667 14.9657 11.6667 12.3447Z" stroke="#4A4C56" stroke-width="1.13" stroke-linecap="round" stroke-linejoin="round"/>
<path d="M11.6667 12.3447V7.65542C11.6667 5.03443 11.6667 3.72393 10.8956 3.39779C10.1245 3.07165 9.21698 3.99831 7.40195 5.85164C6.46201 6.81141 5.92573 7.02395 4.58839 7.02395C3.41883 7.02395 2.83405 7.02395 2.41398 7.31055C1.54198 7.9055 1.67379 9.06837 1.67379 10C1.67379 10.9317 1.54198 12.0946 2.41398 12.6895C2.83405 12.9761 3.41883 12.9761 4.58839 12.9761C5.92573 12.9761 6.46201 13.1887 7.40195 14.1484C9.21698 16.0018 10.1245 16.9284 10.8956 16.6023C11.6667 16.2762 11.6667 14.9657 11.6667 12.3447Z" stroke="black" stroke-opacity="0.2" stroke-width="1.13" stroke-linecap="round" stroke-linejoin="round"/>
<path d="M11.6667 12.3447V7.65542C11.6667 5.03443 11.6667 3.72393 10.8956 3.39779C10.1245 3.07165 9.21698 3.99831 7.40195 5.85164C6.46201 6.81141 5.92573 7.02395 4.58839 7.02395C3.41883 7.02395 2.83405 7.02395 2.41398 7.31055C1.54198 7.9055 1.67379 9.06837 1.67379 10C1.67379 10.9317 1.54198 12.0946 2.41398 12.6895C2.83405 12.9761 3.41883 12.9761 4.58839 12.9761C5.92573 12.9761 6.46201 13.1887 7.40195 14.1484C9.21698 16.0018 10.1245 16.9284 10.8956 16.6023C11.6667 16.2762 11.6667 14.9657 11.6667 12.3447Z" stroke="black" stroke-opacity="0.2" stroke-width="1.13" stroke-linecap="round" stroke-linejoin="round"/>
<path d="M11.6667 12.3447V7.65542C11.6667 5.03443 11.6667 3.72393 10.8956 3.39779C10.1245 3.07165 9.21698 3.99831 7.40195 5.85164C6.46201 6.81141 5.92573 7.02395 4.58839 7.02395C3.41883 7.02395 2.83405 7.02395 2.41398 7.31055C1.54198 7.9055 1.67379 9.06837 1.67379 10C1.67379 10.9317 1.54198 12.0946 2.41398 12.6895C2.83405 12.9761 3.41883 12.9761 4.58839 12.9761C5.92573 12.9761 6.46201 13.1887 7.40195 14.1484C9.21698 16.0018 10.1245 16.9284 10.8956 16.6023C11.6667 16.2762 11.6667 14.9657 11.6667 12.3447Z" stroke="black" stroke-opacity="0.2" stroke-width="1.13" stroke-linecap="round" stroke-linejoin="round"/>
<path d="M11.6667 12.3447V7.65542C11.6667 5.03443 11.6667 3.72393 10.8956 3.39779C10.1245 3.07165 9.21698 3.99831 7.40195 5.85164C6.46201 6.81141 5.92573 7.02395 4.58839 7.02395C3.41883 7.02395 2.83405 7.02395 2.41398 7.31055C1.54198 7.9055 1.67379 9.06837 1.67379 10C1.67379 10.9317 1.54198 12.0946 2.41398 12.6895C2.83405 12.9761 3.41883 12.9761 4.58839 12.9761C5.92573 12.9761 6.46201 13.1887 7.40195 14.1484C9.21698 16.0018 10.1245 16.9284 10.8956 16.6023C11.6667 16.2762 11.6667 14.9657 11.6667 12.3447Z" stroke="black" stroke-opacity="0.2" stroke-width="1.13" stroke-linecap="round" stroke-linejoin="round"/>
<path d="M14.1667 7.5C14.6879 8.18306 15 9.05287 15 10C15 10.9471 14.6879 11.8169 14.1667 12.5" stroke="#4A4C56" stroke-width="1.13" stroke-linecap="round" stroke-linejoin="round"/>
<path d="M14.1667 7.5C14.6879 8.18306 15 9.05287 15 10C15 10.9471 14.6879 11.8169 14.1667 12.5" stroke="black" stroke-opacity="0.2" stroke-width="1.13" stroke-linecap="round" stroke-linejoin="round"/>
<path d="M14.1667 7.5C14.6879 8.18306 15 9.05287 15 10C15 10.9471 14.6879 11.8169 14.1667 12.5" stroke="black" stroke-opacity="0.2" stroke-width="1.13" stroke-linecap="round" stroke-linejoin="round"/>
<path d="M14.1667 7.5C14.6879 8.18306 15 9.05287 15 10C15 10.9471 14.6879 11.8169 14.1667 12.5" stroke="black" stroke-opacity="0.2" stroke-width="1.13" stroke-linecap="round" stroke-linejoin="round"/>
<path d="M14.1667 7.5C14.6879 8.18306 15 9.05287 15 10C15 10.9471 14.6879 11.8169 14.1667 12.5" stroke="black" stroke-opacity="0.2" stroke-width="1.13" stroke-linecap="round" stroke-linejoin="round"/>
<path d="M16.6667 5.83337C17.709 6.97181 18.3334 8.42149 18.3334 10C18.3334 11.5786 17.709 13.0283 16.6667 14.1667" stroke="#4A4C56" stroke-width="1.13" stroke-linecap="round" stroke-linejoin="round"/>
<path d="M16.6667 5.83337C17.709 6.97181 18.3334 8.42149 18.3334 10C18.3334 11.5786 17.709 13.0283 16.6667 14.1667" stroke="black" stroke-opacity="0.2" stroke-width="1.13" stroke-linecap="round" stroke-linejoin="round"/>
<path d="M16.6667 5.83337C17.709 6.97181 18.3334 8.42149 18.3334 10C18.3334 11.5786 17.709 13.0283 16.6667 14.1667" stroke="black" stroke-opacity="0.2" stroke-width="1.13" stroke-linecap="round" stroke-linejoin="round"/>
<path d="M16.6667 5.83337C17.709 6.97181 18.3334 8.42149 18.3334 10C18.3334 11.5786 17.709 13.0283 16.6667 14.1667" stroke="black" stroke-opacity="0.2" stroke-width="1.13" stroke-linecap="round" stroke-linejoin="round"/>
<path d="M16.6667 5.83337C17.709 6.97181 18.3334 8.42149 18.3334 10C18.3334 11.5786 17.709 13.0283 16.6667 14.1667" stroke="black" stroke-opacity="0.2" stroke-width="1.13" stroke-linecap="round" stroke-linejoin="round"/>
</svg>
